<svg id="visual" viewBox="0 0 960 540" width="960" height="540" xmlns="http://www.w3.org/2000/svg" xmlns:xlink="http://www.w3.org/1999/xlink" version="1.1"><rect x="0" y="0" width="960" height="540" fill="#002233"></rect><path d="M0 365L22.8 367C45.7 369 91.3 373 137 387.7C182.7 402.3 228.3 427.7 274 437.5C319.7 447.3 365.3 441.7 411.2 428.8C457 416 503 396 548.8 401C594.7 406 640.3 436 686 436.3C731.7 436.7 777.3 407.3 823 393.7C868.7 380 914.3 382 937.2 383L960 384L960 541L937.2 541C914.3 541 868.7 541 823 541C777.3 541 731.7 541 686 541C640.3 541 594.7 541 548.8 541C503 541 457 541 411.2 541C365.3 541 319.7 541 274 541C228.3 541 182.7 541 137 541C91.3 541 45.7 541 22.8 541L0 541Z" fill="#0066FF" stroke-linecap="round" stroke-linejoin="miter"></path></svg>